<svg width="11" height="11" viewBox="0 0 11 11" fill="none" xmlns="http://www.w3.org/2000/svg">
<path d="M5.5 2.92094C5.05402 2.92094 4.61806 3.05319 4.24724 3.30096C3.87643 3.54873 3.58741 3.9009 3.41674 4.31293C3.24607 4.72496 3.20142 5.17834 3.28843 5.61575C3.37543 6.05316 3.59019 6.45495 3.90554 6.7703C4.2209 7.08565 4.62268 7.30041 5.06009 7.38742C5.4975 7.47442 5.95088 7.42977 6.36291 7.2591C6.77494 7.08843 7.12711 6.79942 7.37488 6.4286C7.62265 6.05778 7.7549 5.62182 7.7549 5.17584C7.75412 4.57804 7.5163 4.00495 7.0936 3.58225C6.67089 3.15954 6.0978 2.92172 5.5 2.92094ZM5.5 6.84251C5.17036 6.84251 4.84813 6.74476 4.57405 6.56163C4.29997 6.37849 4.08635 6.11819 3.9602 5.81365C3.83405 5.5091 3.80105 5.17399 3.86536 4.85069C3.92967 4.52739 4.0884 4.23042 4.32149 3.99733C4.55458 3.76424 4.85155 3.60551 5.17485 3.5412C5.49815 3.47689 5.83326 3.5099 6.13781 3.63604C6.44235 3.76219 6.70265 3.97581 6.88578 4.24989C7.06892 4.52397 7.16667 4.84621 7.16667 5.17584C7.16667 5.61787 6.99107 6.04179 6.67851 6.35435C6.36595 6.66691 5.94203 6.84251 5.5 6.84251ZM7.85294 0.175842H3.14706C2.44525 0.176621 1.77242 0.455757 1.27617 0.952008C0.779914 1.44826 0.500778 2.1211 0.5 2.8229V7.52878C0.500778 8.23059 0.779914 8.90343 1.27617 9.39968C1.77242 9.89593 2.44525 10.1751 3.14706 10.1758H7.85294C8.55475 10.1751 9.22758 9.89593 9.72383 9.39968C10.2201 8.90343 10.4992 8.23059 10.5 7.52878V2.8229C10.4992 2.1211 10.2201 1.44826 9.72383 0.952008C9.22758 0.455757 8.55475 0.176621 7.85294 0.175842ZM9.91177 7.52878C9.91177 8.07482 9.69485 8.59849 9.30875 8.98459C8.92265 9.3707 8.39898 9.58761 7.85294 9.58761H3.14706C2.60102 9.58761 2.07736 9.3707 1.69125 8.98459C1.30515 8.59849 1.08824 8.07482 1.08824 7.52878V2.8229C1.08824 2.27687 1.30515 1.7532 1.69125 1.36709C2.07736 0.980989 2.60102 0.764078 3.14706 0.764078H7.85294C8.39898 0.764078 8.92265 0.980989 9.30875 1.36709C9.69485 1.7532 9.91177 2.27687 9.91177 2.8229V7.52878ZM8.53922 2.62682C8.53922 2.72377 8.51047 2.81855 8.4566 2.89916C8.40274 2.97977 8.32618 3.0426 8.23661 3.0797C8.14704 3.11681 8.04848 3.12651 7.95339 3.1076C7.8583 3.08869 7.77095 3.042 7.7024 2.97344C7.63384 2.90489 7.58716 2.81754 7.56824 2.72246C7.54933 2.62737 7.55904 2.5288 7.59614 2.43923C7.63324 2.34966 7.69607 2.2731 7.77668 2.21924C7.85729 2.16538 7.95207 2.13663 8.04902 2.13663C8.17903 2.13663 8.30371 2.18827 8.39564 2.2802C8.48757 2.37213 8.53922 2.49681 8.53922 2.62682Z" fill="#EDEEF0"/>
</svg>
