<svg width="8" height="10" viewBox="0 0 8 10" fill="none" xmlns="http://www.w3.org/2000/svg">
<path d="M4.00258 9.97329C3.86823 9.97394 3.73561 9.943 3.61541 9.88299C3.49521 9.82298 3.3908 9.73556 3.31058 9.62779L0.780079 6.25679C0.361386 5.66635 0.113118 4.97214 0.0624268 4.25009C0.0117354 3.52804 0.160573 2.80596 0.492661 2.16281C0.82475 1.51966 1.3273 0.980209 1.94535 0.603462C2.5634 0.226716 3.27315 0.0271789 3.99698 0.0266733C4.72081 0.0261677 5.43083 0.224713 6.04941 0.600596C6.66799 0.976478 7.17129 1.51522 7.50428 2.15791C7.83726 2.80059 7.98711 3.52247 7.93743 4.24459C7.88774 4.96671 7.64045 5.66126 7.22258 6.25229L4.69508 9.62679C4.61486 9.73475 4.5104 9.82236 4.39011 9.88255C4.26983 9.94274 4.13708 9.97382 4.00258 9.97329ZM3.99858 0.539788C3.15349 0.537134 2.33762 0.848835 1.70958 1.41429C1.07978 1.97664 0.678386 2.75067 0.581605 3.58943C0.484825 4.42819 0.699395 5.27329 1.18458 5.96429L3.71008 9.32779C3.74394 9.37326 3.788 9.41016 3.83871 9.43552C3.88943 9.46088 3.94538 9.47398 4.00208 9.47379C4.0589 9.47387 4.11496 9.46071 4.16581 9.43537C4.21667 9.41003 4.26093 9.3732 4.29508 9.32779L6.81708 5.96079C7.16118 5.47386 7.37269 4.90578 7.43083 4.31238C7.48897 3.71897 7.39174 3.12065 7.14869 2.57619C6.90564 2.03173 6.52513 1.55987 6.04454 1.20696C5.56395 0.854043 4.99983 0.632223 4.40758 0.563288C4.2718 0.54778 4.13525 0.539934 3.99858 0.539788Z" fill="#EDEEF0"/>
<path d="M4.00195 5.25678C3.75473 5.25678 3.51305 5.18346 3.30749 5.04611C3.10193 4.90876 2.94171 4.71354 2.8471 4.48513C2.75249 4.25672 2.72774 4.00539 2.77597 3.76291C2.8242 3.52044 2.94325 3.29771 3.11807 3.12289C3.29289 2.94808 3.51561 2.82903 3.75809 2.78079C4.00057 2.73256 4.2519 2.75732 4.48031 2.85193C4.70872 2.94654 4.90394 3.10675 5.04129 3.31231C5.17864 3.51787 5.25195 3.75955 5.25195 4.00678C5.25195 4.3383 5.12026 4.65624 4.88584 4.89066C4.65142 5.12508 4.33347 5.25678 4.00195 5.25678ZM4.00195 3.25678C3.85362 3.25678 3.70861 3.30076 3.58528 3.38317C3.46194 3.46558 3.36581 3.58272 3.30904 3.71976C3.25228 3.85681 3.23743 4.00761 3.26636 4.15309C3.2953 4.29858 3.36673 4.43222 3.47162 4.53711C3.57651 4.642 3.71015 4.71343 3.85564 4.74236C4.00112 4.7713 4.15192 4.75645 4.28897 4.69969C4.42601 4.64292 4.54315 4.54679 4.62556 4.42345C4.70797 4.30012 4.75195 4.15511 4.75195 4.00678C4.75195 3.80786 4.67294 3.6171 4.53228 3.47645C4.39163 3.33579 4.20087 3.25678 4.00195 3.25678Z" fill="#EDEEF0"/>
</svg>
